<svg xmlns="http://www.w3.org/2000/svg" viewBox="0 0 821.94 816.64">
    <g id="Layer_2" data-name="Layer 2">
        <g id="colored">
            <path class="pink" d="M45.69,571.27A399.54,399.54,0,0,1,10,405.67c0-195.85,140.42-358.91,326.08-394"/>
            <path class="darkest" d="M671.08,710.84A399.37,399.37,0,0,1,411,806.64q-11.42,0-22.68-.63"/>
            <path class="blue" d="M530.21,22.73c163.22,50.77,281.73,203,281.73,382.94a400.66,400.66,0,0,1-20.33,126.42"/>
            <path class="purple" d="M99.57,254.82C155.62,139.35,274,59.74,411,59.74c140.94,0,262.19,84.28,316.11,205.2"/>
            <path class="pinkish" d="M563.11,716.44A344.52,344.52,0,0,1,411,751.61c-181.68,0-330.64-140.05-344.83-318.08"/>
        </g>
    </g>
</svg>